# xmcd
# 
# Track frame offsets:
#     150
#     17612
#     30947
#     43932
#     56335
#     70427
#     86877
#     102650
#     113402
#     129162
#     142322
#     155537
# 
# Disc length: 2264
# 
# Revision: 2
# Processed by: cddbd v1.5.2PL0 Copyright (c) Steve Scherf et al.
# Submitted via: BonkEnc v1.0.6
# 
DISCID=a108d60c
DTITLE=Trio Parada Dura - Astro Rei
DYEAR=0
DGENRE=Country
TTITLE0=Estrada Colorida
TTITLE1=Bobeou... A Gente  Pimba
TTITLE2=Coração de Pedra Bruta
TTITLE3=Me Mata de Uma Vez
TTITLE4=Barra Pesada
TTITLE5=Verdades
TTITLE6=Astro Rei
TTITLE7=Qualquer Hora Eu Pinto Aí
TTITLE8=Ela É Demais
TTITLE9=O Nosso Amor É Sucesso
TTITLE10=Cordão de Ouro
TTITLE11=A Lei Do Retorno
EXTD=
EXTT0=
EXTT1=
EXTT2=
EXTT3=
EXTT4=
EXTT5=
EXTT6=
EXTT7=
EXTT8=
EXTT9=
EXTT10=
EXTT11=
PLAYORDER=
